<svg xmlns="http://www.w3.org/2000/svg" xmlns:xlink="http://www.w3.org/1999/xlink" width="226.192" height="42.088" viewBox="0 0 226.192 42.088"><defs><style>.a,.b{fill-rule:evenodd;}.a{fill:url(#a);}.b{fill:none;stroke:#c5c3c4;stroke-width:1.5px;}</style><linearGradient id="a" y1="0.5" x2="1" y2="0.5" gradientUnits="objectBoundingBox"><stop offset="0" stop-color="#fefefe"/><stop offset="1" stop-color="#ededed"/></linearGradient></defs><g transform="translate(-0.581 -0.768)"><g transform="translate(2.082 1.518)"><g transform="translate(57.886 4.014)"><g transform="translate(0 0.785)"><path class="a" d="M14.246.6V8.92a19.9,19.9,0,0,0-3.568-.341h0q-4.809,0-7.373,2.815h0Q.745,14.2.742,19.491h0a16.291,16.291,0,0,0,.734,5.125h0a9.253,9.253,0,0,0,1.786,3.364h0A8.652,8.652,0,0,0,5.73,29.85h0a8.733,8.733,0,0,0,2.476.89h0a13.546,13.546,0,0,0,2.133.169h0q4.6,0,6.837-2.151h0a6.908,6.908,0,0,0,2.236-5.146h0V.6ZM6.9,24.737a11.541,11.541,0,0,1-.986-5.521h0q0-3.659,1.259-5.111h0a4.594,4.594,0,0,1,3.676-1.457h0a16.352,16.352,0,0,1,3.4.36h0V24.1q0,2.338-3.906,2.338h0a3.65,3.65,0,0,1-3.444-1.7Z" transform="translate(-0.742 -0.596)"/></g><path class="b" d="M5.909,20.078A11.542,11.542,0,0,0,6.9,25.6a3.651,3.651,0,0,0,3.444,1.7q3.909,0,3.906-2.338V13.871a16.412,16.412,0,0,0-3.4-.36,4.593,4.593,0,0,0-3.676,1.457Q5.91,16.423,5.909,20.078Zm-5.168.275q0-5.288,2.562-8.1t7.373-2.815a19.9,19.9,0,0,1,3.568.341V1.458h5.168V24.473a6.9,6.9,0,0,1-2.236,5.146q-2.236,2.154-6.837,2.151A13.488,13.488,0,0,1,8.207,31.6a8.706,8.706,0,0,1-2.476-.89,8.643,8.643,0,0,1-2.469-1.868,9.263,9.263,0,0,1-1.786-3.364A16.305,16.305,0,0,1,.742,20.353Z" transform="translate(-0.742 -0.673)"/><g transform="translate(23.65 8.727)"><path class="a" d="M2.32,3.452a13.726,13.726,0,0,0-2.3,8.327h0A15.974,15.974,0,0,0,.648,16.45h0a8.944,8.944,0,0,0,1.6,3.167h0A8.184,8.184,0,0,0,4.571,21.5h0a8.844,8.844,0,0,0,2.614.977h0a14.992,14.992,0,0,0,2.688.231h0a16.61,16.61,0,0,0,8.086-1.947h0v-4.2a16.892,16.892,0,0,1-7.308,1.675h0a6.809,6.809,0,0,1-3.792-.953h0q-1.462-.954-1.67-3.77H19.113c.059-.579.086-1.477.086-2.693h0a11.537,11.537,0,0,0-2.427-7.456h0Q14.347.338,9.624.339h0q-5.005,0-7.3,3.113M6.482,5.87A3.769,3.769,0,0,1,9.5,4.618h0a3.528,3.528,0,0,1,3.032,1.535h0a7.517,7.517,0,0,1,1.315,3.762H5.191A6.94,6.94,0,0,1,6.482,5.87" transform="translate(-0.023 -0.339)"/></g><path class="b" d="M48.782,25.432h8.653a7.511,7.511,0,0,0-1.315-3.762,3.529,3.529,0,0,0-3.032-1.536,3.767,3.767,0,0,0-3.016,1.253A6.942,6.942,0,0,0,48.782,25.432ZM43.615,27.3a13.721,13.721,0,0,1,2.3-8.327q2.3-3.112,7.3-3.113,4.724,0,7.148,3.03a11.536,11.536,0,0,1,2.427,7.456c0,1.216-.026,2.113-.086,2.693H48.782q.207,2.814,1.67,3.771a6.809,6.809,0,0,0,3.792.953,16.884,16.884,0,0,0,7.308-1.675v4.2a16.615,16.615,0,0,1-8.086,1.947A15,15,0,0,1,50.777,38a8.852,8.852,0,0,1-2.614-.977,8.185,8.185,0,0,1-2.324-1.886,8.943,8.943,0,0,1-1.6-3.167A15.973,15.973,0,0,1,43.615,27.3Z" transform="translate(-19.965 -7.129)"/><g transform="translate(45.073 9.109)"><path class="a" d="M16.654.169,11.275,16.608,5.9.169H.4L8.609,21.82h5.378L22.2.169Z" transform="translate(-0.397 -0.169)"/></g><path class="b" d="M82.452,16.548h5.5l5.374,16.439,5.378-16.439h5.543L96.043,38.2H90.664Z" transform="translate(-37.378 -7.439)"/><g transform="translate(69.525 8.812)"><path class="a" d="M2.9,3.373Q.275,6.255.276,11.635h0q0,5.381,2.623,8.263h0q2.628,2.881,7.532,2.88h0q4.908,0,7.529-2.88h0q2.629-2.88,2.629-8.263h0q0-5.381-2.629-8.262h0Q15.332.491,10.431.492h0Q5.523.492,2.9,3.373m3.77,13.716q-1.228-1.406-1.227-5.442h0q0-4.035,1.227-5.457h0A4.73,4.73,0,0,1,10.44,4.772h0A4.7,4.7,0,0,1,14.2,6.19h0c.807.948,1.217,2.767,1.217,5.457h0c0,2.691-.41,4.5-1.217,5.442h0A4.711,4.711,0,0,1,10.44,18.5h0a4.737,4.737,0,0,1-3.771-1.409" transform="translate(-0.276 -0.492)"/></g><path class="b" d="M133.17,21.707q-1.228,1.422-1.227,5.457t1.227,5.442a5.741,5.741,0,0,0,7.535,0c.807-.937,1.217-2.751,1.217-5.442s-.41-4.51-1.217-5.457a5.715,5.715,0,0,0-7.535,0ZM129.4,35.415q-2.624-2.88-2.623-8.263t2.623-8.262q2.629-2.882,7.532-2.88t7.529,2.88q2.628,2.882,2.629,8.262t-2.629,8.263q-2.628,2.881-7.529,2.88T129.4,35.415Z" transform="translate(-57.252 -7.198)"/><g transform="translate(94.726 8.768)"><path class="a" d="M.66,2.787V22.4H5.827V5.393a22.393,22.393,0,0,1,3.99-.381h0a9.963,9.963,0,0,1,2.753.317h0a2.868,2.868,0,0,1,1.544.953h0A3.706,3.706,0,0,1,14.745,7.5h0A5.7,5.7,0,0,1,14.9,8.95h0V22.4h5.166V9.4a8.61,8.61,0,0,0-2.531-6.62h0A9.9,9.9,0,0,0,10.514.412h0A21.717,21.717,0,0,0,.66,2.787" transform="translate(-0.66 -0.412)"/></g><path class="b" d="M172.462,37.922V18.3a21.715,21.715,0,0,1,9.854-2.374A9.9,9.9,0,0,1,189.34,18.3a8.6,8.6,0,0,1,2.532,6.619V37.922h-5.167V24.468a5.71,5.71,0,0,0-.158-1.45,3.69,3.69,0,0,0-.631-1.218,2.866,2.866,0,0,0-1.544-.953,9.963,9.963,0,0,0-2.753-.317,22.393,22.393,0,0,0-3.99.381V37.922Z" transform="translate(-77.736 -7.162)"/><g transform="translate(119.659 0)"><path class="a" d="M9.769.076A6.928,6.928,0,0,0,8.025.553h0a5.06,5.06,0,0,0-1.881,1.2h0A6.7,6.7,0,0,0,4.832,4.123h0a11.488,11.488,0,0,0-.577,3.855h0V9.144H.559V12h3.7V30.8h3.11V12h5.88V9.144H7.366V7.937a9.777,9.777,0,0,1,.353-2.892h0A2.613,2.613,0,0,1,8.835,3.5h0a3.994,3.994,0,0,1,1.291-.518h0a10.635,10.635,0,0,1,1.563-.086h0a8.026,8.026,0,0,1,1.556.172h0V.289a7.631,7.631,0,0,0-2.06-.254h0c-.545,0-1.018.015-1.416.041" transform="translate(-0.559 -0.035)"/></g><path class="b" d="M217.662,12V9.144h3.7V7.978a11.492,11.492,0,0,1,.577-3.855,6.694,6.694,0,0,1,1.312-2.372,5.052,5.052,0,0,1,1.881-1.2,6.907,6.907,0,0,1,1.744-.477q.6-.04,1.416-.041a7.645,7.645,0,0,1,2.06.253V3.065a8.022,8.022,0,0,0-1.556-.172,10.627,10.627,0,0,0-1.563.086,4,4,0,0,0-1.291.518,2.609,2.609,0,0,0-1.117,1.547,9.766,9.766,0,0,0-.354,2.892V9.144h5.88V12h-5.88V30.8h-3.11V12Z" transform="translate(-98.003 -0.035)"/><g transform="translate(135.559 9.109)"><path class="a" d="M27.414.169l-5.458,16.77L16.947.169H14L9.059,16.925,3.578.169H.321L7.462,21.82h2.982l4.98-16.458L20.4,21.82h2.981L30.529.169Z" transform="translate(-0.321 -0.169)"/></g><path class="b" d="M246.486,16.548h3.257l5.48,16.756,4.937-16.756h2.952l5.009,16.77,5.458-16.77h3.115L269.545,38.2h-2.981l-4.976-16.458L256.609,38.2h-2.982Z" transform="translate(-110.926 -7.439)"/></g><g transform="translate(0 0)"><g transform="translate(0 16.759)"><path class="a" d="M.082,4.228,11.634,24.556H16l3.16-11.337L15.323.727Z" transform="translate(-0.082 -0.727)"/></g><path class="b" d="M.082,34.4l15.241-3.5L19.16,43.391,16,54.728H11.634Z" transform="translate(-0.082 -14.14)"/><g transform="translate(0 0.062)"><path class="a" d="M11.634.631.082,20.829l15.241-3.5,8.8-5.391L27.306.631Z" transform="translate(-0.082 -0.631)"/></g><path class="b" d="M.082,20.829l15.241-3.5,8.8-5.391L27.306.631H11.634Z" transform="translate(-0.082 -0.569)"/><g transform="translate(27.215 0)"><path class="a" d="M3.861.518.7,11.858,4.543,24.344l15.234-3.495L8.223.518Z" transform="translate(-0.698 -0.518)"/></g><path class="b" d="M68.5,20.85,53.263,24.344,49.419,11.858,52.581.518h4.362Z" transform="translate(-22.203 -0.518)"/><g transform="translate(19.073 20.331)"><path class="a" d="M12.455,3.8,3.63,9.271.468,20.5H16.135L27.688.306Z" transform="translate(-0.468 -0.306)"/></g><path class="b" d="M61.878,37.376,46.644,40.87,37.82,46.34,34.657,57.574H50.325Z" transform="translate(-15.585 -17.044)"/></g></g></g></svg>