<svg xmlns="http://www.w3.org/2000/svg" xmlns:xlink="http://www.w3.org/1999/xlink" width="293" height="196.791" viewBox="0 0 293 196.791"><defs><style>.a{fill:#373e51;}.b{fill:#595959;}.c{fill:#454d5e;}.d{opacity:0.7;}.e{fill:url(#a);}.f{fill:#596377;}.g{opacity:0.1;}.h{fill:#0075b3;opacity:0.85;}.i{fill:url(#b);}.j{fill:#f0f0f1;}.k{fill:#64728f;}.l{fill:#d8dcef;}.m{fill:#fff;}.n{fill:#c7d3f3;}</style><linearGradient id="a" x1="0.5" y1="1" x2="0.5" gradientUnits="objectBoundingBox"><stop offset="0" stop-color="gray" stop-opacity="0.251"/><stop offset="0.535" stop-color="gray" stop-opacity="0.122"/><stop offset="1" stop-color="gray" stop-opacity="0.102"/></linearGradient><linearGradient id="b" x1="0.5" x2="0.5" xlink:href="#a"/></defs><g transform="translate(0 0)"><g transform="translate(0 0)"><g transform="translate(0 0)"><g transform="translate(0 0)"><path class="a" d="M35.455,125.233c-2.017,8.131-9.084,13.212-9.084,13.212s-3.8-8.1-1.781-16.233S33.675,109,33.675,109,37.472,117.1,35.455,125.233Z" transform="translate(8.122 36.888)"/><path class="b" d="M31.575,121.474C25.662,127.387,25,136.415,25,136.415s8.926-.56,14.84-6.474S46.415,115,46.415,115,37.489,115.56,31.575,121.474Z" transform="translate(8.461 38.919)"/><rect class="c" width="32" height="13" rx="5" transform="translate(20 172.791)"/><g class="d" transform="translate(246.432 160.837)"><path class="e" d="M25.439,4.887V.169H.121V21.993a4.448,4.448,0,0,0,1.446,3.253,5.126,5.126,0,0,0,3.491,1.348H20.5a4.778,4.778,0,0,0,4.937-4.6V17.156a6.369,6.369,0,0,0,6.57-6.134,6.369,6.369,0,0,0-6.57-6.134Zm0,9.909V7.247a3.92,3.92,0,0,1,4.051,3.775A3.92,3.92,0,0,1,25.439,14.8Z" transform="translate(-0.121 -0.169)"/></g><path class="f" d="M202.023,125a6.023,6.023,0,1,0,6.023,6.023A6.023,6.023,0,0,0,202.023,125Zm0,9.729a3.706,3.706,0,1,1,3.706-3.706A3.706,3.706,0,0,1,202.023,134.729Z" transform="translate(66.331 42.303)"/><path class="g" d="M202.023,125a6.023,6.023,0,1,0,6.023,6.023A6.023,6.023,0,0,0,202.023,125Zm0,9.729a3.706,3.706,0,1,1,3.706-3.706A3.706,3.706,0,0,1,202.023,134.729Z" transform="translate(66.331 42.303)"/><path class="f" d="M184,121h22.753v21.289a2.887,2.887,0,0,1-2.964,2.8H186.964a2.887,2.887,0,0,1-2.964-2.8Z" transform="translate(62.27 40.949)"/><rect class="h" width="293" height="11" rx="4" transform="translate(0 185.791)"/><g class="d" transform="translate(93.809)"><path class="i" d="M98.507,118.336c-3.119-11.314-20.8-19.576-34.1-21.408,0-.083.006-.166.006-.25V86.992l.043-.015v-.367A33.221,33.221,0,0,0,84.526,65.584a35.884,35.884,0,0,0,2.142-4.615c1.42-.517,2.493-2.858,2.493-5.67a9.9,9.9,0,0,0-.4-2.843,36.365,36.365,0,0,0,.266-4.317,35.972,35.972,0,0,0-11.89-26.76,7.016,7.016,0,0,0,.112-1.76c-.3-4.649-5.269-7.807-9.924-8.018a9.816,9.816,0,0,0,1.657-10.37c-2.969,4.323-9.063,4.782-14.309,4.816A4.289,4.289,0,0,0,56.637,0c-5.483,7.345-16.17,8.705-22.691,15.147a19.12,19.12,0,0,0-3.528,4.81A35.992,35.992,0,0,0,16.842,48.14a36.374,36.374,0,0,0,.261,4.278A9.864,9.864,0,0,0,16.69,55.3c0,2.825,1.083,5.173,2.513,5.676a35.883,35.883,0,0,0,2.151,4.63A33.214,33.214,0,0,0,41.286,86.558v10.12c0,.078,0,.155.006.232-13.354,1.8-31.175,10.128-34.266,21.533-2.669,9.849-5.519,20.666-6.936,27.017C12.241,153.994,37.738,159,53.718,159c15.182,0,40-4.523,51.791-12.294C104.232,139.733,101.293,128.441,98.507,118.336Z" transform="translate(-0.089 0)"/></g><path class="c" d="M123.427,132.229c14.842,0,39.1-4.361,50.631-11.855-1.249-6.729-4.122-17.617-6.845-27.361C163.746,80.6,141.859,72,128.8,72H116.221c-13.1,0-35.016,8.653-38.44,21.116-2.609,9.5-5.395,19.928-6.781,26.052C82.879,127.4,107.806,132.229,123.427,132.229Z" transform="translate(24.028 24.367)"/><circle class="f" cx="34.5" cy="34.5" r="34.5" transform="translate(112 15.791)"/><path class="g" d="M101,59h22.753V77.12a11.351,11.351,0,0,1-11.377,11.325h0A11.351,11.351,0,0,1,101,77.12Z" transform="translate(34.181 19.967)"/><path class="j" d="M104.264,58H120.49a3.256,3.256,0,0,1,3.264,3.249V76.12a11.351,11.351,0,0,1-11.377,11.325h0A11.351,11.351,0,0,1,101,76.12V61.249A3.256,3.256,0,0,1,104.264,58Z" transform="translate(34.181 19.629)"/><path class="g" d="M101,65.284a38.807,38.807,0,0,0,22.753.053V63H101Z" transform="translate(34.181 21.321)"/><ellipse class="j" cx="32.5" cy="33" rx="32.5" ry="33" transform="translate(116 23.791)"/><path class="g" d="M93,22.92s13.661,26.929,52.2,11.286l-8.972-13.663L120.323,15Z" transform="translate(31.473 5.076)"/><path class="k" d="M93,21.92s13.661,26.929,52.2,11.286l-8.972-13.663L120.323,14Z" transform="translate(31.473 4.738)"/><path class="f" d="M92.665,23.451a17.892,17.892,0,0,1,4.56-7.24c6.266-6.044,16.535-7.32,21.8-14.212a3.982,3.982,0,0,1-1.889,5.676c5.04-.032,10.9-.463,13.749-4.519a9.042,9.042,0,0,1-1.592,9.729c4.473.2,9.246,3.161,9.536,7.523.193,2.906-1.674,5.657-4.12,7.323a23.252,23.252,0,0,1-8.32,3.058C117.887,32.62,87.115,40.29,92.665,23.451Z" transform="translate(31.135 0.677)"/><path class="f" d="M151.583,43h-.87L133.8,57.786c-16.3-7.494-28.264,0-28.264,0L87.789,43.608,86,43.828c.5,17.585,15.29,31.517,33.207,31.291S151.539,60.592,151.583,43ZM118.735,63.458c-6.381,0-11.553-1.27-11.553-2.836s5.173-2.836,11.553-2.836,11.553,1.27,11.553,2.836S125.116,63.458,118.735,63.458Z" transform="translate(29.105 14.552)"/><ellipse class="j" cx="2.5" cy="5.5" rx="2.5" ry="5.5" transform="translate(112 51.791)"/><ellipse class="j" cx="3" cy="5.5" rx="3" ry="5.5" transform="translate(177 51.791)"/><g class="d" transform="translate(83.03 112.637)"><rect class="i" width="124.21" height="70.608" rx="14.5" transform="translate(0 0)"/></g><rect class="l" width="121" height="70" rx="7" transform="translate(87 115.791)"/><ellipse class="m" cx="5" cy="4" rx="5" ry="4" transform="translate(142 146.791)"/><path class="g" d="M199.424,119v19.9A4.314,4.314,0,0,1,195,143.092h2.268a4.314,4.314,0,0,0,4.424-4.195V119Z" transform="translate(65.993 40.273)"/><path class="n" d="M187.058,108.609a1.263,1.263,0,0,0-.975.533c-.29.566.235,1.2.714,1.592a9.824,9.824,0,0,1,2.42,2.426,3.237,3.237,0,0,1,.133,3.362c-.859,1.254-2.908,1.524-3.106,3.068a2.609,2.609,0,0,0,1.474,2.334c1.99,1.227,4.555,1.555,6,3.476a4.664,4.664,0,0,1,3.259-2.409c1.329-.326,2.71-.3,4.058-.523a1.379,1.379,0,0,0,1.12-.64c.377-.823-.7-1.811-.326-2.638.282-.629,1.111-.58,1.716-.832a2.48,2.48,0,0,0,1.112-2.873,5.378,5.378,0,0,0-1.9-2.657,20.62,20.62,0,0,0-7.652-3.81A18.441,18.441,0,0,0,191.032,108,18.966,18.966,0,0,0,187.058,108.609Z" transform="translate(62.947 36.55)"/></g></g></g></g></svg>