<svg xmlns="http://www.w3.org/2000/svg" width="383.081" height="290.935" viewBox="0 0 383.081 290.935"><defs><style>.a{fill:#f2f2f2;}.b{opacity:0.1;}.c{fill:#3f3d56;}.d{fill:#0075b3;}.e{fill:#a8a8a8;}.f{opacity:0.2;}.g{fill:#ffb9b9;}.h{fill:#d0cde1;}.i{fill:#2f2e41;}.j{fill:#a0616a;}.k{fill:#575a89;}</style></defs><path class="a" d="M502.931,152.829c-16.837-66.208-75.015-114-143.3-115.918-36.1-1.013-74.092,10.96-101.751,52.86-49.444,74.9,3.038,126.658,39.628,151.252a228.946,228.946,0,0,1,47.323,42.533c24.715,29.328,72.26,65.772,128.885,8.67C514.754,250.839,514.147,196.931,502.931,152.829Z" transform="translate(-173.726 -36.853)"/><path class="b" d="M719.6,360.9l34.646-34.541L719.6,291.822l10.563-10.528,45.209,45.068-45.209,45.068L719.6,360.9Z" transform="translate(-466.231 -182.251)"/><path class="b" d="M494.6,427.231h14.084V413.147H494.6Zm70.7-14.084H551.217v14.084H565.3Zm-42.392,14.084h14.084V413.147H522.909Z" transform="translate(-340.17 -280.655)"/><path class="b" d="M281.772,359.9l-34.682-34.541,34.646-34.541-10.563-10.528L226,325.362l45.209,45.068Z" transform="translate(-146.426 -181.603)"/><path class="c" d="M439.081,785.957c0,5.834-85.756,26.055-191.541,26.055S56,791.791,56,785.957s85.756,4.929,191.541,4.929S439.081,780.124,439.081,785.957Z" transform="translate(-56 -521.077)"/><path class="b" d="M439.081,785.957c0,5.834-85.756,26.055-191.541,26.055S56,791.791,56,785.957s85.756,4.929,191.541,4.929S439.081,780.124,439.081,785.957Z" transform="translate(-56 -521.077)"/><ellipse class="c" cx="191.541" cy="10.563" rx="191.541" ry="10.563" transform="translate(0 254.317)"/><path class="c" d="M688.7,644.806c0,22.54,14.14,40.779,31.615,40.779" transform="translate(-465.926 -430.748)"/><path class="d" d="M778.487,684.742c0-22.793,15.78-41.237,35.281-41.237" transform="translate(-524.102 -429.905)"/><path class="d" d="M721.229,650.609c0,21.41,9.017,38.736,20.16,38.736" transform="translate(-487.004 -434.508)"/><path class="c" d="M778.487,663.664c0-29.125,18.239-52.692,40.779-52.692" transform="translate(-524.102 -408.827)"/><path class="e" d="M759.6,756.982s4.484-.138,5.835-1.1,6.9-2.111,7.232-.568,6.738,7.675,1.676,7.716-11.762-.788-13.11-1.61S759.6,756.982,759.6,756.982Z" transform="translate(-511.863 -501.857)"/><path class="f" d="M774.43,766.94c-5.062.041-11.762-.788-13.11-1.61-1.027-.626-1.436-2.87-1.573-3.906l-.15.006s.284,3.616,1.633,4.437,8.048,1.651,13.11,1.61c1.461-.012,1.966-.532,1.938-1.3C776.075,766.64,775.518,766.931,774.43,766.94Z" transform="translate(-511.863 -506.305)"/><path class="g" d="M899.971,408.889s-10.84-8.231-11.663-5.214,7.954,9.874,7.954,9.874Z" transform="translate(-595.219 -274.088)"/><path class="b" d="M899.971,408.889s-10.84-8.231-11.663-5.214,7.954,9.874,7.954,9.874Z" transform="translate(-595.219 -274.088)"/><path class="h" d="M948.7,345.7s-12.891,23.039-13.165,26.331-.274,3.566-1.371,3.291-16.182-1.92-17.554-1.371-4.114-3.291-4.114-3.291-5.211,5.211-4.114,6.308,4.388,1.646,4.937,3.017,1.371,2.743,3.84,2.469,19.2,4.388,21.394,3.566,2.743-2.194,3.84-2.194,3.291-1.1,3.291-1.371,7.68-14.811,7.68-14.811S962.415,347.89,948.7,345.7Z" transform="translate(-608.163 -236.953)"/><path class="b" d="M948.7,345.7s-12.891,23.039-13.165,26.331-.274,3.566-1.371,3.291-16.182-1.92-17.554-1.371-4.114-3.291-4.114-3.291-5.211,5.211-4.114,6.308,4.388,1.646,4.937,3.017,1.371,2.743,3.84,2.469,19.2,4.388,21.394,3.566,2.743-2.194,3.84-2.194,3.291-1.1,3.291-1.371,7.68-14.811,7.68-14.811S962.415,347.89,948.7,345.7Z" transform="translate(-608.163 -236.953)"/><path class="i" d="M957.784,294.359a22.814,22.814,0,0,0,.07,4.373c.417,3.151,1.867,6.436.5,9.377-.5,1.068-1.34,2-1.8,3.078-.972,2.287-.091,4.824-.223,7.259a9.976,9.976,0,0,1-5.213,7.9,18.111,18.111,0,0,0,13.412-5.911c3.271-3.5,5.092-7.846,6.458-12.192a26.508,26.508,0,0,0,1.34-6.31,9.1,9.1,0,0,0-.426-3.657,13.93,13.93,0,0,0-1.881-3.212,12.665,12.665,0,0,0-2.869-3.182,11.523,11.523,0,0,0-6.333-1.961C958.4,290.107,957.886,292.678,957.784,294.359Z" transform="translate(-635.949 -200.806)"/><path class="g" d="M992.792,323.971s3.017,10.7.549,13.714,14.811-1.371,14.811-1.371-8.5-8.5-4.388-13.988Z" transform="translate(-662.951 -221.812)"/><path class="b" d="M992.792,323.971s3.017,10.7.549,13.714,14.811-1.371,14.811-1.371-8.5-8.5-4.388-13.988Z" transform="translate(-662.951 -221.812)"/><path class="d" d="M719.6,341.9l34.646-34.541L719.6,272.822l10.563-10.528,45.209,45.068-45.209,45.068L719.6,341.9Z" transform="translate(-466.231 -169.941)"/><path class="g" d="M908.748,694.716v7.954l4.114,4.937,3.566-1.646-1.1-11.52Z" transform="translate(-588.781 -449.931)"/><path class="i" d="M946.558,749.27s-1.1-3.84-3.017-1.1-3.84,8.777-4.937,9.051-8.777,8.777-1.1,8.777,10.148-3.566,10.148-3.566,7.68-3.017,7.68-3.566-1.1-10.7-1.646-10.7-.823,1.92-2.194,1.92A35.562,35.562,0,0,1,946.558,749.27Z" transform="translate(-624.945 -497.08)"/><path class="g" d="M960.436,698.107l-.274,7.406,6.582,2.742v-10.7Z" transform="translate(-622.092 -451.95)"/><path class="i" d="M1015.893,751.237s-3.566-3.84-5.486-3.017a18.955,18.955,0,0,0-2.743,1.371s-1.1,3.566-1.646,6.583-.823,4.388-1.371,5.486-1.1,5.211,4.388,5.76,7.131-2.469,7.131-2.469l1.371-7.131S1016.99,751.237,1015.893,751.237Z" transform="translate(-670.417 -497.675)"/><path class="i" d="M959.271,496.983s-7.954,17.828-6.857,34.011c0,0-2.743,6.308-1.1,16.182s3.84,29.622,3.84,29.622,7.406.823,7.954-.549c0,0,.549-13.714,1.1-14.263s-.274-13.165-1.1-15.634,7.68-26.879,7.68-26.879L968.6,489.029Z" transform="translate(-635.738 -329.82)"/><path class="b" d="M959.271,496.983s-7.954,17.828-6.857,34.011c0,0-2.743,6.308-1.1,16.182s3.84,29.622,3.84,29.622,7.406.823,7.954-.549c0,0,.549-13.714,1.1-14.263s-.274-13.165-1.1-15.634,7.68-26.879,7.68-26.879L968.6,489.029Z" transform="translate(-635.738 -329.82)"/><path class="i" d="M968.643,491.849l5.211,11.245s2.469,25.508,3.84,28.8c0,0,.549,9.326,3.017,12.342s4.388,29.622,4.388,29.622,6.857,1.92,7.406,0,2.194-15.085,2.194-15.085.549-11.245-2.469-18.651,3.566-34.011,3.566-34.011,6.857-12.891-3.017-23.314Z" transform="translate(-647.305 -325.782)"/><circle class="g" cx="11.245" cy="11.245" r="11.245" transform="translate(324.63 82.96)"/><path class="h" d="M986.02,352.706s-11.794,0-13.44,1.371a2.188,2.188,0,0,1-3.017,0s-4.114.274-5.211,3.566-4.388,7.68-4.388,7.68-4.937,3.566-2.194,12.891.549,24.411.549,24.411-2.194,3.291,0,4.663,3.017,1.92,2.743,3.017,24.959-9.051,24.959-10.971-.549-3.566,0-4.388a3.914,3.914,0,0,0,.549-3.566c-.549-1.371.549-1.646.274-3.017s1.371-11.52,2.468-15.908S990.134,352.98,986.02,352.706Z" transform="translate(-639.722 -241.495)"/><path class="g" d="M899.971,418.237s-10.84-8.231-11.663-5.214,7.954,9.874,7.954,9.874Z" transform="translate(-595.219 -280.144)"/><path class="h" d="M948.7,356.6s-12.891,23.039-13.165,26.331-.274,3.566-1.371,3.291-16.182-1.92-17.554-1.371-4.114-3.291-4.114-3.291-5.211,5.211-4.114,6.308,4.388,1.646,4.937,3.017,1.371,2.743,3.84,2.469,19.2,4.388,21.394,3.566,2.743-2.194,3.84-2.194,3.291-1.1,3.291-1.371,7.68-14.811,7.68-14.811S962.415,358.8,948.7,356.6Z" transform="translate(-608.163 -244.019)"/><path class="i" d="M977.913,279.66a27.274,27.274,0,0,0-1.019-3.21,6.663,6.663,0,0,1,.759-5.174c1.613-2.605,4.78-3.759,6.988-5.883a3.97,3.97,0,0,0,1.626,2.7,19.516,19.516,0,0,1,2.484,2.084,8.161,8.161,0,0,1,1.447,2.931,10.3,10.3,0,0,1,.572,3.844,4.82,4.82,0,0,1-1.666,3.416c-.823.65-1.972,1.021-2.37,1.992a3.4,3.4,0,0,0-.132,1.5,30.355,30.355,0,0,1-.346,9.028,10.374,10.374,0,0,1-5.18,7.081,20.79,20.79,0,0,0,6.707-.252,7.038,7.038,0,0,0,5.006-4.11,21.758,21.758,0,0,1,.931-3.184c1.331-2.471,5-2.584,6.81-4.733a7.273,7.273,0,0,0,1.331-3.061c1.524-6.431.453-13.259-1.867-19.448a13.921,13.921,0,0,0-3.51-5.78,14.473,14.473,0,0,0-5.166-2.579,30.138,30.138,0,0,0-8.288-1.686,10.527,10.527,0,0,0-3.638.425,10.817,10.817,0,0,0-3.2,1.824c-4.429,3.446-7.445,8.954-7.045,14.552a20.381,20.381,0,0,0,3.521,9.444c.645,1,2.168,3.124,3.584,2.5C977.533,283.313,978.081,280.863,977.913,279.66Z" transform="translate(-647.606 -178.27)"/><path class="d" d="M494.6,408.231h14.084V394.147H494.6Zm70.7-14.084H551.217v14.084H565.3Zm-42.392,14.084h14.084V394.147H522.909Z" transform="translate(-340.17 -268.345)"/><ellipse class="i" cx="11.85" cy="9.243" rx="11.85" ry="9.243" transform="translate(60.754 65.344)"/><path class="j" d="M266.183,427.487s10.665.711,12.561-.711,9.954,1.9,10.665,3.792-11.376,2.133-13.273,2.133-10.9,2.844-10.9,2.844Z" transform="translate(-191.564 -289.262)"/><path class="i" d="M199.8,741.107s-4.971,12.534-2.377,14.047,29.823.432,29.823.432,4.538-2.809-.648-4.754c0,0-4.322-.216-7.132-1.945a41.322,41.322,0,0,1-6.051-4.971s-.216-4.754-1.945-3.674a4.441,4.441,0,0,0-1.945,3.026Z" transform="translate(-147.142 -492.478)"/><path class="b" d="M199.8,741.107s-4.971,12.534-2.377,14.047,29.823.432,29.823.432,4.538-2.809-.648-4.754c0,0-4.322-.216-7.132-1.945a41.322,41.322,0,0,1-6.051-4.971s-.216-4.754-1.945-3.674a4.441,4.441,0,0,0-1.945,3.026Z" transform="translate(-147.142 -492.478)"/><path class="d" d="M281.772,340.9l-34.682-34.541,34.646-34.541-10.563-10.528L226,306.362l45.209,45.068Z" transform="translate(-146.426 -169.293)"/><path class="i" d="M177.476,751.815s-5.451,13.746-2.607,15.406,32.707.474,32.707.474,4.977-3.081-.711-5.214c0,0-4.74-.237-7.821-2.133a45.318,45.318,0,0,1-6.636-5.451s-.237-5.214-2.133-4.029a4.871,4.871,0,0,0-2.133,3.318Z" transform="translate(-132.483 -499.352)"/><path class="i" d="M227.453,495.264l-3.318,29.863s-1.185,14.221-4.74,17.3c0,0,0,4.5-1.185,5.925l-1.659,18.724s2.37,6.873,2.133,8.058.948,4.977.711,5.451-11.376,0-11.376,0l2.37-38.159,7.347-53.09Z" transform="translate(-154.493 -330.02)"/><path class="b" d="M227.453,495.264l-3.318,29.863s-1.185,14.221-4.74,17.3c0,0,0,4.5-1.185,5.925l-1.659,18.724s2.37,6.873,2.133,8.058.948,4.977.711,5.451-11.376,0-11.376,0l2.37-38.159,7.347-53.09Z" transform="translate(-154.493 -330.02)"/><path class="i" d="M198.858,492.135s-2.607,24.412-3.792,29.626a67.411,67.411,0,0,0-1.422,10.428s-.237,7.584-2.37,9.717a6.406,6.406,0,0,0-1.9,4.74s-2.133,23.938-.948,26.782,2.37,5.214,1.185,7.11-14.221,1.9-14.221.474,0-2.607-.711-3.318,0-5.214,0-5.214-2.844-21.094-.237-27.256,3.792-22.99,3.792-22.99-1.9-19.2-4.266-22.279.474-13.984.474-13.984Z" transform="translate(-131.824 -327.839)"/><path class="j" d="M227.436,275.62a3.186,3.186,0,0,0,1.535,1.308c3.48,1.917,6.393,4.7,9.262,7.444a10.873,10.873,0,0,1,.431-7.353,3.791,3.791,0,0,0,.547-2.475,3.082,3.082,0,0,0-1.2-1.438,37.264,37.264,0,0,0-3.665-2.5c-.887-.531-2.712-1.944-3.73-1.791a9.46,9.46,0,0,1-.684,3.892C229.787,273.012,227.541,275.86,227.436,275.62Z" transform="translate(-167.074 -187.134)"/><circle class="j" cx="9.717" cy="9.717" r="9.717" transform="translate(62.768 72.099)"/><path class="k" d="M199.6,302.674s1.659-8.3-3.081-11.139-10.191-6.162-10.191-6.162-1.659-.237-2.37,3.318c0,0-13.51,2.607-14.932,15.406s.948,31.522.948,31.522-2.133,16.354-4.74,25.123c0,0-2.133,1.9,7.347-.948s26.071,8.058,26.071,8.058,1.659-1.659,1.659-2.844,1.9-8.058,1.9-8.058,1.659-29.152,2.37-32.47S201.732,303.148,199.6,302.674Z" transform="translate(-126.639 -197.867)"/><path class="i" d="M235.819,235.836a4.052,4.052,0,0,1,1.906-.508,3.627,3.627,0,0,0,1.885-.562c.918-.7.985-2.067,1.657-3.009.972-1.364,2.912-1.529,4.586-1.46a5.081,5.081,0,0,0,2.989-.451,4.488,4.488,0,0,0,1.585-2.648c.353-1.193.581-2.652-.293-3.537-.607-.614-1.566-.736-2.241-1.275a5.922,5.922,0,0,1-1.368-2.281,6.164,6.164,0,0,0-1.985-2.486,7.59,7.59,0,0,0-4.448-1.066,34.82,34.82,0,0,1-4.644.03,14.192,14.192,0,0,0-3.773-.389,5.394,5.394,0,0,0-3.713,2.857,15.961,15.961,0,0,0-1.455,4.61l-.892,4.309a11.371,11.371,0,0,0-.341,4.056c.443,2.794,2.914,5.016,3.085,7.84a4.813,4.813,0,0,1,2.938-3.493.919.919,0,0,1,.6-.073c.246.079.389.324.544.53.406.54,1.681,1.359,2.4.976C235.489,237.463,235.006,236.387,235.819,235.836Z" transform="translate(-165.624 -153.018)"/><path class="j" d="M185.481,393.291s-1.659,10.428,5.214,9.48c0,0,3.555-.474,4.029,0s18.013-2.607,20.383-5.214c0,0,2.844-.948,4.266.474s15.643,2.844,11.376-1.422-10.9-5.214-10.9-5.214l-9.006.474s-4.74,1.422-7.584,0-10.9-.948-10.9-.948Z" transform="translate(-139.777 -266.206)"/><path class="k" d="M193.778,304.226s-10.665,1.185-10.665,16.591v19.672s5.925-2.607,7.11-2.37,5.925-3.081,5.925-3.081,5.451-12.8,4.977-16.354S200.888,304.7,193.778,304.226Z" transform="translate(-138.356 -210.085)"/><ellipse class="i" cx="9.125" cy="4.74" rx="9.125" ry="4.74" transform="translate(63.361 71.033)"/><ellipse class="i" cx="3.2" cy="7.94" rx="3.2" ry="7.94" transform="translate(60.754 68.662)"/></svg>