<svg xmlns="http://www.w3.org/2000/svg" width="112.13" height="111.906" viewBox="0 0 112.13 111.906"><defs><style>.a{fill:#495057;}</style></defs><path class="a" d="M51.9.036c-1.28.019-2.822.056-3.443.107C31.431,1.61,16.205,11.688,7.376,27.3A58.539,58.539,0,0,0,.1,51.838,79.294,79.294,0,0,0,.26,62.153,57.626,57.626,0,0,0,14.6,94.693a51.3,51.3,0,0,0,34.745,17.113,26.49,26.49,0,0,0,4.765.056,11.231,11.231,0,0,0-1.579-.346,53.509,53.509,0,0,1-22.318-10.428,58.467,58.467,0,0,1-18.8-62.739,56.4,56.4,0,0,1,20.907-29.1A51.737,51.737,0,0,1,52.118.494l2.07-.458ZM58.79,2.419a46.511,46.511,0,0,0-24.682,8.718A54.535,54.535,0,0,0,15.047,36.112a34.781,34.781,0,0,0-1.317,4.107c0,.056,17.884.112,48.167.112,39.543,0,48.2-.037,48.2-.168a41.2,41.2,0,0,0-1.322-4.1,66.243,66.243,0,0,0-3.831-8.045,56.423,56.423,0,0,0-6.886-9.306Q86.482,5.955,70.862,3.133a55.807,55.807,0,0,0-12.077-.715ZM111.334,46.5c-.093,0-22.388,0-49.564.019l-49.4.037-.051.276c-.168.748-.626,5.055-.626,5.807,0,.131,8.339.15,50.209.15h50.228v-.35c0-.477-.327-3.7-.5-4.929-.093-.748-.187-1.009-.294-1.009Zm-49.4,12.315c-43.776-.019-50.134,0-50.19.164a32.421,32.421,0,0,0,.35,4.546c.093.733.164,1.392.164,1.467,0,.126,9.984.164,49.639.164h49.634l.112-.878c.2-1.523.477-4.532.439-4.985l-.037-.439Zm.014,12.7c-41.5,0-48.223.019-48.223.164,0,.093.252.972.565,1.962A51.965,51.965,0,0,0,23.97,91.119a77.55,77.55,0,0,0,5.737,6.013,46.537,46.537,0,0,0,24.2,11.82,41.986,41.986,0,0,0,8.176.514,40.04,40.04,0,0,0,9.456-.827c9.858-1.944,18.286-6.779,25.836-14.81a52.316,52.316,0,0,0,12.278-20.608l.547-1.705Z" transform="translate(0.002 -0.036)"/></svg>