<svg xmlns="http://www.w3.org/2000/svg" width="111.883" height="111.883" viewBox="0 0 111.883 111.883"><defs><style>.a{fill:#495057;}</style></defs><path class="a" d="M0,0V111.883H111.883V0ZM17.356,14.5H40.665v8.55h-6.48V52.315h6.48v8.55H17.356v-8.55h6.732V23.053H17.356Zm51.536,0H79.25V44.8a20.394,20.394,0,0,1-1.035,7.254,13.831,13.831,0,0,1-3.37,5.175,11.526,11.526,0,0,1-5.175,3.114,18.335,18.335,0,0,1-6.736,1.3,18.738,18.738,0,0,1-9.063-2.074,22.423,22.423,0,0,1-5.962-4.923l6.48-7.249a14.917,14.917,0,0,0,3.883,3.366,8.706,8.706,0,0,0,4.405,1.3,6.245,6.245,0,0,0,4.662-1.813c1.03-1.3,1.552-3.109,1.552-5.958ZM10.358,90.9H52.315V97.9H10.358Z"/></svg>