<svg xmlns="http://www.w3.org/2000/svg" xmlns:xlink="http://www.w3.org/1999/xlink" width="293" height="207.339" viewBox="0 0 293 207.339"><defs><style>.a{fill:#3f3d56;}.b{fill:#f2f2f2;}.c{fill:url(#a);}.d,.n{fill:#0075b3;}.e{fill:#596377;}.f{fill:#f0f0f1;}.g{opacity:0.05;}.h{fill:#64728f;}.i{opacity:0.7;}.j{opacity:0.1;}.k{fill:#535461;}.l{fill:#fff;}.m{fill:#eee;}.n{opacity:0.85;}</style><linearGradient id="a" x1="0.5" y1="1" x2="0.5" gradientUnits="objectBoundingBox"><stop offset="0" stop-color="gray" stop-opacity="0.251"/><stop offset="0.535" stop-color="gray" stop-opacity="0.122"/><stop offset="1" stop-color="gray" stop-opacity="0.102"/></linearGradient></defs><g transform="translate(-15.703 -112.777)"><path class="a" d="M246.819,645.366c0,8.645-5.14,11.664-11.479,11.664-.148,0-.294,0-.44-.006-.294-.006-.585-.019-.872-.04-5.722-.4-10.167-3.579-10.167-11.619,0-8.32,10.63-18.818,11.432-19.6h0l.046-.045S246.819,636.72,246.819,645.366Z" transform="translate(-174.029 -352.706)"/><path class="b" d="M242.554,655.707l4.2-5.866-4.209,6.51-.011.673c-.294-.006-.585-.019-.872-.04l.452-8.649,0-.067.008-.013.042-.817-4.22-6.527,4.232,5.914.01.173.342-6.535-3.613-6.744,3.656,5.6.356-13.548,0-.046v.045l-.059,10.684,3.6-4.236-3.611,5.156-.095,5.851,3.358-5.615-3.372,6.477-.053,3.253,4.875-7.816-4.893,8.952Z" transform="translate(-181.661 -352.706)"/><path class="c" d="M474.972,405.669c-3.067-11.133-20.1-19.338-33.384-21.456v-5.348q.368-.137.733-.283a11.818,11.818,0,0,0-.638-3.134,32.251,32.251,0,0,0,14.13-11.176,36.338,36.338,0,0,0-7.175-56.019,7.129,7.129,0,0,0-3.188-13.134,13.916,13.916,0,0,0-21.664-16.166,13.912,13.912,0,0,1,20.446,12.285c0,.122-.007.242-.01.364a13.914,13.914,0,1,0-26.972,5.2A6.957,6.957,0,0,0,412.644,307a36.339,36.339,0,0,0-8.862,57.8,32.257,32.257,0,0,0,13.106,10.386v8.914c-13.428,1.918-31.112,10.276-34.2,21.684-2.693,9.941-5.567,20.858-7,27.268,12.258,8.613,37.98,13.671,54.1,13.671,15.316,0,40.349-4.565,52.246-12.408C480.747,427.265,477.782,415.868,474.972,405.669ZM450.416,302.835c0,.127-.005.252-.012.377a6.959,6.959,0,0,0-5.778-6.462q.2-.342.385-.7A6.959,6.959,0,0,1,450.416,302.835Z" transform="translate(-256.336 -163)"/><path class="d" d="M431.556,571.265c14.88,0,39.2-4.435,50.758-12.055-1.252-6.842-4.133-17.914-6.862-27.823-3.477-12.619-25.418-21.368-38.508-21.368H424.331c-13.13,0-35.1,8.8-38.536,21.472-2.616,9.658-5.408,20.264-6.8,26.491C390.906,566.352,415.9,571.265,431.556,571.265Z" transform="translate(-258.129 -289.984)"/><circle class="e" cx="35.3" cy="35.3" r="35.3" transform="translate(137.888 141.499)"/><path class="f" d="M300.595,306.181h18.469a2.763,2.763,0,0,1,2.763,2.763v18.884a11.347,11.347,0,0,1-11.347,11.347h-1.3a11.347,11.347,0,0,1-11.347-11.347V308.944A2.763,2.763,0,0,1,300.595,306.181Z" transform="translate(-136.937 -104.845)"/><path class="g" d="M480.466,488.72a31.128,31.128,0,0,0,11.6-2.235A11.5,11.5,0,0,0,480.6,475.731h-.983A11.5,11.5,0,0,0,468.162,486.2,31.122,31.122,0,0,0,480.466,488.72Z" transform="translate(-306.466 -271.396)"/><circle class="f" cx="31.23" cy="31.23" r="31.23" transform="translate(142.02 151.865)"/><circle class="h" cx="6.76" cy="6.76" r="6.76" transform="translate(155.913 135.49)"/><circle class="e" cx="6.76" cy="6.76" r="6.76" transform="translate(179.947 135.49)"/><circle class="e" cx="13.519" cy="13.519" r="13.519" transform="translate(160.42 117.465)"/><path class="h" d="M521.6,322.1a6.728,6.728,0,0,0-3.772,1.15,6.756,6.756,0,0,1,6.042,11.97,6.756,6.756,0,0,0-2.27-13.12Z" transform="translate(-333.388 -188.112)"/><path class="e" d="M489.64,281.094a13.464,13.464,0,0,0-8.6,3.086,13.518,13.518,0,0,1,14.943,22.369,13.518,13.518,0,0,0-6.345-25.455Z" transform="translate(-313.448 -165.882)"/><path class="e" d="M444.05,357.357s3.755,24.785,51.073,11.266L471.84,348.344Z" transform="translate(-293.395 -202.339)"/><rect class="d" width="32.536" height="13.845" rx="6.923" transform="translate(45.227 296.959)"/><g class="i" transform="translate(272.083 283.126)"><path class="c" d="M734.18,652.791V647.8H709.236v23.073a4.864,4.864,0,0,0,4.864,4.864h15.216a4.864,4.864,0,0,0,4.864-4.864v-5.114a6.486,6.486,0,0,0,0-12.971Zm0,10.477v-7.982a3.991,3.991,0,1,1,0,7.982Z" transform="translate(-709.236 -647.802)"/></g><path class="d" d="M754.948,660.4a5.921,5.921,0,1,0,5.922,5.922,5.921,5.921,0,0,0-5.922-5.922Zm0,9.565a3.644,3.644,0,1,1,3.644-3.644,3.644,3.644,0,0,1-3.644,3.644Z" transform="translate(-458.723 -371.507)"/><path class="j" d="M754.948,660.4a5.921,5.921,0,1,0,5.922,5.922,5.921,5.921,0,0,0-5.922-5.922Zm0,9.565a3.644,3.644,0,1,1,3.644-3.644,3.644,3.644,0,0,1-3.644,3.644Z" transform="translate(-458.723 -371.507)"/><path class="d" d="M543.642,487.455h22.775V508.5a4.464,4.464,0,0,1-4.464,4.465H548.107a4.464,4.464,0,0,1-4.465-4.465Z" transform="translate(-270.192 -203.114)"/><g class="i" transform="translate(109.469 237.455)"><rect class="c" width="125.719" height="72.394" rx="14.5"/></g><rect class="k" width="121.164" height="71.058" rx="7" transform="translate(111.747 238.79)"/><circle class="l" cx="4.1" cy="4.1" r="4.1" transform="translate(168.229 270.22)"/><path class="j" d="M747.748,650.455v21.067a4.441,4.441,0,0,1-4.441,4.441h2.278a4.441,4.441,0,0,0,4.441-4.441V650.455Z" transform="translate(-455.622 -366.114)"/><path class="m" d="M720.743,612.683a1.33,1.33,0,0,0-1.006.511c-.3.542.243,1.152.737,1.524a9.8,9.8,0,0,1,2.5,2.322,2.911,2.911,0,0,1,.137,3.218c-.885,1.2-3,1.459-3.2,2.937-.131.949.689,1.758,1.52,2.235,2.051,1.175,4.7,1.489,6.182,3.328a4.793,4.793,0,0,1,3.36-2.307c1.371-.312,2.794-.289,4.184-.5a1.447,1.447,0,0,0,1.154-.612c.389-.788-.719-1.734-.336-2.525.291-.6,1.145-.556,1.769-.8a2.3,2.3,0,0,0,1.146-2.75,5.179,5.179,0,0,0-1.959-2.544,21.944,21.944,0,0,0-7.89-3.647,20.215,20.215,0,0,0-4.194-.97A20.945,20.945,0,0,0,720.743,612.683Z" transform="translate(-442.799 -345.322)"/><rect class="n" width="293" height="11" rx="4" transform="translate(15.703 309.116)"/></g></svg>