<svg xmlns="http://www.w3.org/2000/svg" width="112.268" height="111.682" viewBox="0 0 112.268 111.682"><defs><style>.a{fill:#495057;}</style></defs><path class="a" d="M108.292,11.9,85.183.785a6.989,6.989,0,0,0-7.976,1.357L32.956,42.511,13.684,27.879a4.673,4.673,0,0,0-5.969.267L1.531,33.768a4.678,4.678,0,0,0,0,6.918L18.24,55.936,1.526,71.186a4.678,4.678,0,0,0,0,6.918l6.189,5.618a4.673,4.673,0,0,0,5.969.267L32.961,69.357l44.252,40.369a6.979,6.979,0,0,0,7.971,1.357L108.3,99.963a7.017,7.017,0,0,0,3.967-6.324V18.229a7.017,7.017,0,0,0-3.977-6.325ZM84.22,81.421,50.643,55.936,84.22,30.452V81.421Z" transform="translate(0 -0.093)"/></svg>