<svg xmlns="http://www.w3.org/2000/svg" width="57.588" height="78.111" viewBox="0 0 57.588 78.111"><defs><style>.a{fill:#495057;}</style></defs><path class="a" d="M42.128,47.735a24.662,24.662,0,0,1,3.57-1.907s-5.9,1.068-11.777,1.556c-7.185.595-14.9.717-18.78.2-9.169-1.22,5.034-4.592,5.034-4.592a27.02,27.02,0,0,0-12.3,2.9C-.13,49.764,27.712,51.534,42.128,47.735ZM29.1,42.838C26.2,36.324,16.422,30.6,29.1,20.6,44.914,8.116,36.8,0,36.8,0c3.28,12.891-11.533,16.8-16.888,24.806C16.27,30.283,21.7,36.156,29.1,42.838ZM46.583,15.958c.015,0-26.728,6.682-13.959,21.389,3.768,4.333-.992,8.238-.992,8.238S41.2,40.641,36.8,34.463c-4.1-5.767-7.246-8.635,9.779-18.505Zm-.931,41.267a1.86,1.86,0,0,1-.305.4C64.92,52.48,57.72,39.482,48.368,42.777a2.644,2.644,0,0,0-1.251.961,10.748,10.748,0,0,1,1.678-.458c4.729-.992,11.518,6.331-3.143,13.944Zm7.195,9.5s2.212,1.815-2.426,3.234c-8.833,2.67-36.736,3.478-44.486.107-2.792-1.205,2.441-2.9,4.089-3.249a11.068,11.068,0,0,1,2.7-.305c-3.1-2.182-20.031,4.287-8.6,6.133C35.278,77.713,60.933,70.375,52.847,66.729ZM18.741,60.413C6.735,63.769,26.049,70.7,41.335,64.151a28.359,28.359,0,0,1-4.3-2.105,44.646,44.646,0,0,1-16.171.687c-5.111-.58-2.121-2.319-2.121-2.319Zm27.43,14.829a115.636,115.636,0,0,1-35.592.549c0-.015,1.8,1.48,11.045,2.075,14.066.9,35.668-.5,36.171-7.155,0,0-.976,2.517-11.625,4.531ZM39.52,53.853A63.022,63.022,0,0,1,18.65,54.86c-5.111-.534-1.77-3.005-1.77-3.005-13.242,4.394,7.353,9.367,25.859,3.951a9.21,9.21,0,0,1-3.219-1.953Z" transform="translate(-0.208)"/></svg>