<svg xmlns="http://www.w3.org/2000/svg" width="128.559" height="78.74" viewBox="0 0 128.559 78.74"><defs><style>.a{fill:#495057;}</style></defs><path class="a" d="M63.536,82.959a2.654,2.654,0,0,1-1.225-.321l-3.857-2.29c-.583-.321-.3-.442-.1-.5a7.034,7.034,0,0,0,1.748-.8.346.346,0,0,1,.281.02l2.973,1.768a.384.384,0,0,0,.362,0l11.61-6.709a.38.38,0,0,0,.181-.321V60.4a.341.341,0,0,0-.181-.321l-11.61-6.689a.384.384,0,0,0-.362,0L51.745,60.08a.362.362,0,0,0-.181.321V73.8a.373.373,0,0,0,.181.3l3.174,1.828c1.728.864,2.792-.161,2.792-1.165V61.526a.339.339,0,0,1,.341-.341h1.466a.339.339,0,0,1,.341.341V74.764c0,2.31-1.245,3.616-3.435,3.616a4.979,4.979,0,0,1-2.672-.723L50.7,75.909A2.481,2.481,0,0,1,49.475,73.8V60.4A2.414,2.414,0,0,1,50.7,58.292l11.611-6.709a2.492,2.492,0,0,1,2.431,0l11.611,6.709A2.481,2.481,0,0,1,77.577,60.4V73.8a2.414,2.414,0,0,1-1.225,2.109L64.742,82.618a2.224,2.224,0,0,1-1.205.341Zm9.381-13.217c0-2.511-1.687-3.174-5.263-3.656-3.616-.482-3.977-.723-3.977-1.567,0-.7.3-1.627,2.973-1.627,2.39,0,3.274.522,3.636,2.129a.322.322,0,0,0,.321.261h1.507a.333.333,0,0,0,.241-.1.316.316,0,0,0,.08-.261c-.241-2.772-2.069-4.058-5.785-4.058-3.314,0-5.283,1.406-5.283,3.736,0,2.551,1.969,3.234,5.142,3.555,3.8.382,4.1.924,4.1,1.667,0,1.306-1.045,1.848-3.5,1.848-3.073,0-3.756-.763-3.977-2.29a.33.33,0,0,0-.341-.281H61.287a.339.339,0,0,0-.341.341c0,1.948,1.065,4.279,6.147,4.279,3.716,0,5.825-1.446,5.825-3.977ZM83.865,59.678a2.23,2.23,0,1,1-2.23-2.23A2.212,2.212,0,0,1,83.865,59.678Zm-.362,0a1.878,1.878,0,1,0-1.888,1.888A1.912,1.912,0,0,0,83.5,59.678Zm-.9,1.245h-.522c-.02-.121-.1-.763-.1-.783-.04-.141-.08-.221-.261-.221h-.442v1h-.482V58.413h.864c.3,0,.884,0,.884.663a.589.589,0,0,1-.482.623c.341.02.362.241.422.562a2.8,2.8,0,0,0,.121.663Zm-.562-1.768c0-.341-.241-.341-.362-.341h-.4v.7h.382a.339.339,0,0,0,.382-.362ZM27.58,30.531a1.461,1.461,0,0,0-.743-1.286L14.523,22.155a1.589,1.589,0,0,0-.683-.2H13.72a1.415,1.415,0,0,0-.683.2L.743,29.246A1.485,1.485,0,0,0,0,30.531L.02,49.614a.768.768,0,0,0,.362.643.707.707,0,0,0,.743,0l7.312-4.2a1.509,1.509,0,0,0,.743-1.286V35.854a1.485,1.485,0,0,1,.743-1.286l3.114-1.788a1.427,1.427,0,0,1,.743-.2,1.379,1.379,0,0,1,.743.2l3.114,1.788a1.485,1.485,0,0,1,.743,1.286v8.919a1.485,1.485,0,0,0,.743,1.286l7.312,4.2a.707.707,0,0,0,.743,0,.742.742,0,0,0,.362-.643ZM94.913,9.7V45.135a1.485,1.485,0,0,1-.743,1.286L81.856,53.531a1.508,1.508,0,0,1-1.486,0L68.056,46.42a1.485,1.485,0,0,1-.743-1.286V30.913a1.485,1.485,0,0,1,.743-1.286L80.37,22.516a1.508,1.508,0,0,1,1.486,0l3.073,1.768a.526.526,0,0,0,.783-.442V4.96a.739.739,0,0,1,1.1-.643l7.332,4.1A1.455,1.455,0,0,1,94.913,9.7Zm-9.24,25.893a.38.38,0,0,0-.181-.321l-4.218-2.451a.425.425,0,0,0-.382,0l-4.218,2.451a.341.341,0,0,0-.181.321v4.881a.38.38,0,0,0,.181.321l4.218,2.431a.384.384,0,0,0,.362,0L85.472,40.8a.341.341,0,0,0,.181-.321V35.593Zm42.143-.141a1.485,1.485,0,0,0,.743-1.286V30.732a1.485,1.485,0,0,0-.743-1.286l-12.233-7.111a1.508,1.508,0,0,0-1.486,0l-12.314,7.111a1.485,1.485,0,0,0-.743,1.286V44.954a1.461,1.461,0,0,0,.743,1.286l12.233,6.97a1.47,1.47,0,0,0,1.466,0l7.392-4.118a.737.737,0,0,0,0-1.286L110.481,40.7a.743.743,0,0,1-.382-.643V35.593a.743.743,0,0,1,.382-.643l3.857-2.23a.707.707,0,0,1,.743,0l3.857,2.23a.788.788,0,0,1,.382.643v3.5a.754.754,0,0,0,1.125.643l7.372-4.279Zm-15.528.7a.306.306,0,0,0-.141.241v2.732a.279.279,0,0,0,.141.241l2.37,1.366a.241.241,0,0,0,.281,0l2.37-1.366a.306.306,0,0,0,.141-.241V36.4a.279.279,0,0,0-.141-.241l-2.37-1.366a.241.241,0,0,0-.281,0ZM61.226,44.894V30.752a1.524,1.524,0,0,0-.783-1.286L48.17,22.4a1.507,1.507,0,0,0-1.486,0L34.41,29.467a1.5,1.5,0,0,0-.783,1.286V44.894a1.549,1.549,0,0,0,.8,1.286L46.723,53.25a1.459,1.459,0,0,0,1.486,0l12.253-7.071a1.493,1.493,0,0,0,.723-.944,1.769,1.769,0,0,0,.04-.341ZM46.3,19.8l-.161.1h.221ZM61.608,45.958l-.08-.141V46Z" transform="translate(0 -4.22)"/></svg>